<?xml version="1.0" encoding="utf-8"?>
<!-- Generator: Adobe Illustrator 21.1.0, SVG Export Plug-In . SVG Version: 6.00 Build 0)  -->
<svg version="1.1" id="Layer_1" xmlns:sketch="http://www.bohemiancoding.com/sketch/ns"
	 xmlns="http://www.w3.org/2000/svg" xmlns:xlink="http://www.w3.org/1999/xlink" x="0px" y="0px" viewBox="0 0 376 148"
	 style="enable-background:new 0 0 376 148;" xml:space="preserve">
<style type="text/css">
	.st0{fill:#2B2B2B;}
	.st1{stroke:#333333;stroke-width:1.0663;}
	.st2{fill:#2B2B2B;fill-opacity:0.5;}
	.st3{stroke:#333333;stroke-width:1.645;}
	.st4{stroke:#333333;stroke-width:1.1307;}
	.st5{stroke:#333333;stroke-width:0.8479;}
	.st6{stroke:#333333;stroke-width:1.3064;}
</style>
<title>dirt</title>
<desc>Created with Sketch.</desc>
<path id="Shape_47_" sketch:type="MSShapeGroup" class="st0" d="M273.6,1.3c-4,0-7.7,1.3-10.6,3.4c-2.3-1.1-5-1.8-7.8-1.8
	c-9.2,0-16.6,6.6-16.6,14.7c0,1.6,0.3,3.1,0.8,4.6c-2.6,2.6-4.2,6-4.2,9.7c0,1.3,0.2,2.5,0.5,3.7c-1.5,0.4-2.9,1-4.1,1.8
	c-2.5,1.1-4.6,2.8-6.2,4.8c0,0,0,0,0,0c-1.5,0.6-3,1.2-4.4,1.9c-2.6-6.1-7.6-10.5-13.6-11.5c-3.1-2.8-6.9-4.4-11.1-4.4
	c-4,0-7.6,1.5-10.6,4c-2.8-2-6-3.2-9.5-3.2c-9.5,0-17.3,8.5-18.2,19.4c-1.7-0.6-3.5-0.9-5.3-0.9c-5.6,0-10.6,3-14,7.6
	c-0.9,0-1.9-0.1-2.8-0.1c-2.9,0-5.8,0.2-8.5,0.7c-3.2-6.4-9.1-10.7-15.8-10.7c-7.7,0-14.2,5.5-16.9,13.4
	c-2.9-7.4-9.2-12.6-16.6-12.6c-5.6,0-10.6,2.9-13.9,7.6c-2.2-1.1-4.6-1.7-7.1-1.7c-7.5,0-14,5.4-16.8,13c-2.7-1.9-5.8-2.9-9.2-2.9
	c-6.8,0-12.7,4.3-15.8,10.7c-1.3-0.7-2.8-1.1-4.3-1.1c-5.9,0-10.7,5.6-10.7,12.5s4.8,12.5,10.7,12.5c1.8,0,3.5-0.5,5-1.4
	c0.1,0.1,0.2,0.2,0.2,0.3c1.4,4,4.5,7,8.3,7.7c2.1,0.9,4.3,1.5,6.6,1.5c3.3,0,6.3-1,9-2.8c1.3,5.2,5.4,9.1,10.3,9.1
	c0.8,0,1.5-0.1,2.3-0.3c2.3,1.1,4.9,1.8,7.6,1.8c2.3,0,4.5-0.5,6.5-1.3c1.9,2,4.4,3.2,7.1,3.2c3.4,0,6.4-1.9,8.4-4.8
	c4.4,7.9,16.1,13.7,30.2,14.4c1.8,3.8,5.3,6.3,9.3,6.3c3.6,0,6.7-2,8.7-5.2c1,1.1,2.1,2.1,3.4,3.1c0.8,6,5.2,10.5,10.6,10.5
	c2.9,0,5.5-1.3,7.4-3.5l0.3,0c1.6,4.5,5.4,7.7,9.9,7.7c1.3,0,2.5-0.3,3.7-0.8c6.3,4.3,15.5,7.1,25.7,7.1c13.5,0,25.2-4.8,30.9-11.8
	c0.8,0,1.6-0.1,2.3-0.2c2.1,0.9,4.5,1.5,7,1.5c6.9,0,12.8-3.9,15.3-9.3c0.4-0.3,0.8-0.6,1.2-1c0.9,0.1,1.8,0.3,2.8,0.3
	c1.4,0,2.8-0.2,4.2-0.5c1.8,3.8,5.3,6.3,9.3,6.3c4.3,0,8-3,9.7-7.3c0.9,0.1,1.9,0.2,2.8,0.2c3.2,0,6.1-0.8,8.6-2.2
	c1.9,2.1,4.5,3.4,7.3,3.4c4.5,0,8.4-3.3,10-8c0.4,0,0.9,0.1,1.3,0.1c1.1,0,2.2-0.2,3.3-0.4c1.8,1.6,4,2.5,6.4,2.5
	c4.4,0,8.2-3.1,9.8-7.6c2.5,1.4,5.5,2.2,8.6,2.2c6.4,0,12-3.3,14.8-8.2c1.9,0.7,4,1.1,6.2,1.1c9.2,0,16.6-6.8,16.6-15.1
	c0-1-0.1-1.9-0.3-2.9c1.3-2.1,2-4.6,2-7.2c0-4.9-2.5-9.2-6.5-11.9c0.4-1.3,0.6-2.6,0.6-4c0-8.3-7.4-15.1-16.6-15.1
	c-0.8,0-1.6,0.1-2.4,0.2c0.3-1.1,0.5-2.3,0.5-3.5c0-8.1-7.4-14.7-16.6-14.7c-0.3,0-0.5,0-0.8,0c-1.8-3.8-5.3-6.3-9.3-6.3
	c-1.5,0-3,0.4-4.3,1.1c-4.1-7-14-12.3-26.1-13.8c0-0.3,0.1-0.5,0.1-0.8C290.2,7.8,282.8,1.3,273.6,1.3L273.6,1.3z"/>
<path id="Shape_46_" sketch:type="MSShapeGroup" d="M273.6,1.7c-4,0-7.7,1.3-10.6,3.4c-2.3-1.1-5-1.8-7.8-1.8c-1.4,0-2.7,0.2-4,0.5
	c2.9,2.2,5.7,4.6,8.2,6.9C270.6,12,279.4,21,279.4,32c0,2.4-0.4,4.7-1.2,6.8c1.6,5,2.5,10.2,2.5,15.4c0,0,0,0,0,0.1
	c4.5,3.9,7.2,9.5,7.2,15.6c0,11.7-10,21.2-22.4,21.4c-0.4,0.4-0.8,0.9-1.2,1.3c1,2.1,1.5,4.5,1.5,6.8c0,11.8-12.8,21.4-28.7,21.4
	c-1.4,0-2.8-0.1-4.2-0.2c-2.4,10.3-16.8,18.3-34.3,18.3c-6.1,0-11.8-1-16.8-2.7c-3.3,3.8-8,6.6-13.5,7.7c6.1,3.3,14.1,5.3,22.8,5.3
	c13.5,0,25.2-4.8,30.9-11.8c0.8,0,1.6-0.1,2.3-0.2c2.1,0.9,4.5,1.5,7,1.5c6.9,0,12.8-3.9,15.3-9.3c0.4-0.3,0.8-0.6,1.2-1
	c0.9,0.1,1.8,0.3,2.8,0.3c1.4,0,2.8-0.2,4.2-0.5c1.8,3.8,5.3,6.3,9.3,6.3c4.3,0,8-3,9.7-7.3c0.9,0.1,1.9,0.2,2.8,0.2
	c3.2,0,6.1-0.8,8.6-2.2c1.9,2.1,4.5,3.4,7.3,3.4c4.5,0,8.4-3.3,10-8c0.4,0,0.9,0.1,1.3,0.1c1.1,0,2.2-0.2,3.3-0.4
	c1.8,1.6,4,2.5,6.4,2.5c4.4,0,8.2-3.1,9.8-7.6c2.5,1.4,5.5,2.2,8.6,2.2c6.4,0,12-3.3,14.8-8.2c1.9,0.7,4,1.1,6.2,1.1
	c9.2,0,16.6-6.8,16.6-15.1c0-1-0.1-1.9-0.3-2.9c1.3-2.1,2-4.6,2-7.2c0-4.9-2.5-9.2-6.5-11.9c0.4-1.3,0.6-2.6,0.6-4
	c0-8.3-7.4-15.1-16.6-15.1c-0.8,0-1.6,0.1-2.4,0.2c0.3-1.1,0.5-2.3,0.5-3.5c0-8.1-7.4-14.7-16.6-14.7c-0.3,0-0.5,0-0.8,0
	c-1.8-3.8-5.3-6.3-9.3-6.3c-1.5,0-3,0.4-4.3,1.1c-4.1-7-14-12.3-26.1-13.8c0-0.3,0.1-0.5,0.1-0.8C290.2,8.3,282.8,1.7,273.6,1.7
	L273.6,1.7z"/>
<path id="Shape_45_" sketch:type="MSShapeGroup" class="st1" d="M161.8,115.7c1.5,0,2.8,0.4,4,1.1h0.1c4,0,7.3,3.2,7.5,7.1
	c0,0.1,0,0.3,0,0.4c0,1.1-0.2,2.1-0.7,3.1c0.8,1.2,1.3,2.6,1.3,4.2c0,0.1,0,0.3,0,0.4c-0.2,4-3.5,7.1-7.5,7.1c-0.4,0-0.8,0-1.2-0.1
	c-1.2,0.8-2.6,1.2-4.1,1.2c-1.5,0-2.8-0.4-4-1.1c-0.1,0-0.3,0-0.4,0c-4.2,0-7.5-3.4-7.5-7.5c0-1.1,0.2-2.1,0.7-3.1
	c-0.8-1.2-1.3-2.6-1.3-4.2c0-4.2,3.4-7.5,7.5-7.5c0.5,0,1,0,1.5,0.1C158.8,116.2,160.3,115.7,161.8,115.7L161.8,115.7z"/>
<path id="Shape_44_" sketch:type="MSShapeGroup" class="st2" d="M163.7,118.1c1.5,0,2.8,0.4,4,1.1h0.1c4,0,7.3,3.2,7.5,7.1
	c0,0.1,0,0.3,0,0.4c0,1.1-0.2,2.1-0.7,3.1c0.8,1.2,1.3,2.6,1.3,4.2c0,0.1,0,0.3,0,0.4c-0.2,4-3.5,7.1-7.5,7.1c-0.4,0-0.8,0-1.2-0.1
	c-1.2,0.8-2.6,1.2-4.1,1.2c-1.5,0-2.8-0.4-4-1.1c-0.1,0-0.3,0-0.4,0c-4.2,0-7.5-3.4-7.5-7.5c0-1.1,0.2-2.1,0.7-3.1
	c-0.8-1.2-1.3-2.6-1.3-4.2c0-4.2,3.4-7.5,7.5-7.5c0.5,0,1,0,1.5,0.1C160.7,118.6,162.2,118.1,163.7,118.1L163.7,118.1z"/>
<path id="Shape_43_" sketch:type="MSShapeGroup" class="st1" d="M244.9,115.1c1.5,0,2.8,0.4,4,1.1h0.1c4,0,7.3,3.2,7.5,7.1
	c0,0.1,0,0.3,0,0.4c0,1.1-0.2,2.1-0.7,3.1c0.8,1.2,1.3,2.6,1.3,4.2c0,0.1,0,0.3,0,0.4c-0.2,4-3.5,7.1-7.5,7.1c-0.4,0-0.8,0-1.2-0.1
	c-1.2,0.8-2.6,1.2-4.1,1.2c-1.5,0-2.8-0.4-4-1.1c-0.1,0-0.3,0-0.4,0c-4.2,0-7.5-3.4-7.5-7.5c0-1.1,0.2-2.1,0.7-3.1
	c-0.8-1.2-1.3-2.6-1.3-4.2c0-4.2,3.4-7.5,7.5-7.5c0.5,0,1,0,1.5,0.1C241.9,115.6,243.4,115.1,244.9,115.1L244.9,115.1z"/>
<path id="Shape_42_" sketch:type="MSShapeGroup" class="st2" d="M246.8,117.5c1.5,0,2.8,0.4,4,1.1h0.1c4,0,7.3,3.2,7.5,7.1
	c0,0.1,0,0.3,0,0.4c0,1.1-0.2,2.1-0.7,3.1c0.8,1.2,1.3,2.6,1.3,4.2c0,0.1,0,0.3,0,0.4c-0.2,4-3.5,7.1-7.5,7.1c-0.4,0-0.8,0-1.2-0.1
	c-1.2,0.8-2.6,1.2-4.1,1.2c-1.5,0-2.8-0.4-4-1.1c-0.1,0-0.3,0-0.4,0c-4.2,0-7.5-3.4-7.5-7.5c0-1.1,0.2-2.1,0.7-3.1
	c-0.8-1.2-1.3-2.6-1.3-4.2c0-4.2,3.4-7.5,7.5-7.5c0.5,0,1,0,1.5,0.1C243.8,118,245.3,117.5,246.8,117.5L246.8,117.5z"/>
<path id="Shape_41_" sketch:type="MSShapeGroup" class="st3" d="M353.9,68.6c2.2,0,4.3,0.7,6.1,1.7h0.2c6.2,0,11.3,4.9,11.6,11
	c0,0.2,0,0.4,0,0.6c0,1.7-0.4,3.3-1,4.7c1.2,1.8,2,4.1,2,6.4c0,0.2,0,0.4,0,0.6c-0.3,6.1-5.4,11-11.6,11c-0.6,0-1.2,0-1.8-0.1
	c-1.8,1.2-4,1.9-6.3,1.9c-2.3,0-4.4-0.6-6.2-1.8c-0.2,0-0.5,0-0.7,0c-6.4,0-11.6-5.2-11.6-11.6c0-1.7,0.4-3.3,1-4.7
	c-1.2-1.8-2-4-2-6.4c0-6.4,5.2-11.6,11.6-11.6c0.8,0,1.5,0.1,2.3,0.2C349.2,69.3,351.5,68.6,353.9,68.6L353.9,68.6z"/>
<path id="Shape_40_" sketch:type="MSShapeGroup" class="st2" d="M356.8,72.3c2.2,0,4.3,0.7,6.1,1.7h0.2c6.2,0,11.3,4.9,11.6,11
	c0,0.2,0,0.4,0,0.6c0,1.7-0.4,3.3-1,4.7c1.2,1.8,2,4.1,2,6.4c0,0.2,0,0.4,0,0.6c-0.3,6.1-5.4,11-11.6,11c-0.6,0-1.2,0-1.8-0.1
	c-1.8,1.2-4,1.9-6.3,1.9c-2.3,0-4.4-0.6-6.2-1.8c-0.2,0-0.5,0-0.7,0c-6.4,0-11.6-5.2-11.6-11.6c0-1.7,0.4-3.3,1-4.7
	c-1.2-1.8-2-4-2-6.4c0-6.4,5.2-11.6,11.6-11.6c0.8,0,1.5,0.1,2.3,0.2C352.2,73,354.4,72.3,356.8,72.3L356.8,72.3z"/>
<path id="Shape_39_" sketch:type="MSShapeGroup" class="st4" d="M303.6,48.1c1.5,0,3,0.4,4.2,1.2h0.1c4.3,0,7.8,3.3,8,7.6
	c0,0.1,0,0.3,0,0.4c0,1.2-0.3,2.2-0.7,3.2c0.9,1.3,1.3,2.8,1.3,4.4c0,0.1,0,0.3,0,0.4c-0.2,4.2-3.7,7.6-8,7.6c-0.4,0-0.8,0-1.2-0.1
	c-1.3,0.8-2.8,1.3-4.4,1.3c-1.6,0-3-0.4-4.2-1.2c-0.2,0-0.3,0-0.5,0c-4.4,0-8-3.6-8-8c0-1.2,0.3-2.3,0.7-3.3
	c-0.9-1.3-1.4-2.8-1.4-4.4c0-4.4,3.6-8,8-8c0.5,0,1.1,0.1,1.6,0.2C300.4,48.6,302,48.1,303.6,48.1L303.6,48.1z"/>
<path id="Shape_38_" sketch:type="MSShapeGroup" class="st2" d="M307.3,52.3c1.5,0,3,0.4,4.2,1.2h0.1c4.3,0,7.8,3.3,8,7.6
	c0,0.1,0,0.3,0,0.4c0,1.2-0.3,2.2-0.7,3.2c0.9,1.3,1.3,2.8,1.3,4.4c0,0.1,0,0.3,0,0.4c-0.2,4.2-3.7,7.6-8,7.6c-0.4,0-0.8,0-1.2-0.1
	c-1.3,0.8-2.8,1.3-4.4,1.3c-1.6,0-3-0.4-4.2-1.2c-0.2,0-0.3,0-0.5,0c-4.4,0-8-3.6-8-8c0-1.2,0.3-2.3,0.7-3.3
	c-0.9-1.3-1.4-2.8-1.4-4.4c0-4.4,3.6-8,8-8c0.5,0,1.1,0.1,1.6,0.2C304.1,52.8,305.7,52.3,307.3,52.3L307.3,52.3z"/>
<path id="Shape_37_" sketch:type="MSShapeGroup" class="st1" d="M31.9,81.6c1.5,0,2.8,0.4,4,1.1h0.1c4,0,7.3,3.2,7.5,7.1
	c0,0.1,0,0.3,0,0.4c0,1.1-0.2,2.1-0.7,3.1c0.8,1.2,1.3,2.6,1.3,4.2c0,0.1,0,0.3,0,0.4c-0.2,4-3.5,7.1-7.5,7.1c-0.4,0-0.8,0-1.2-0.1
	c-1.2,0.8-2.6,1.2-4.1,1.2c-1.5,0-2.8-0.4-4-1.1c-0.1,0-0.3,0-0.4,0c-4.2,0-7.5-3.4-7.5-7.5c0-1.1,0.2-2.1,0.7-3.1
	c-0.8-1.2-1.3-2.6-1.3-4.2c0-4.2,3.4-7.5,7.5-7.5c0.5,0,1,0,1.5,0.1C28.9,82.1,30.3,81.6,31.9,81.6L31.9,81.6z"/>
<path id="Shape_36_" sketch:type="MSShapeGroup" class="st2" d="M33.8,84c1.5,0,2.8,0.4,4,1.1h0.1c4,0,7.3,3.2,7.5,7.1
	c0,0.1,0,0.3,0,0.4c0,1.1-0.2,2.1-0.7,3.1c0.8,1.2,1.3,2.6,1.3,4.2c0,0.1,0,0.3,0,0.4c-0.2,4-3.5,7.1-7.5,7.1c-0.4,0-0.8,0-1.2-0.1
	c-1.2,0.8-2.6,1.2-4.1,1.2c-1.5,0-2.8-0.4-4-1.1c-0.1,0-0.3,0-0.4,0c-4.2,0-7.5-3.4-7.5-7.5c0-1.1,0.2-2.1,0.7-3.1
	c-0.8-1.2-1.3-2.6-1.3-4.2c0-4.2,3.4-7.5,7.5-7.5c0.5,0,1,0,1.5,0.1C30.8,84.5,32.2,84,33.8,84L33.8,84z"/>
<path id="Shape_35_" sketch:type="MSShapeGroup" class="st1" d="M109.1,86.6c1.5,0,2.8,0.4,4,1.1h0.1c4,0,7.3,3.2,7.5,7.1
	c0,0.1,0,0.3,0,0.4c0,1.1-0.2,2.1-0.7,3.1c0.8,1.2,1.3,2.6,1.3,4.2c0,0.1,0,0.3,0,0.4c-0.2,4-3.5,7.1-7.5,7.1c-0.4,0-0.8,0-1.2-0.1
	c-1.2,0.8-2.6,1.2-4.1,1.2c-1.5,0-2.8-0.4-4-1.1c-0.1,0-0.3,0-0.4,0c-4.2,0-7.5-3.4-7.5-7.5c0-1.1,0.2-2.1,0.7-3.1
	c-0.8-1.2-1.3-2.6-1.3-4.2c0-4.2,3.4-7.5,7.5-7.5c0.5,0,1,0,1.5,0.1C106.1,87.1,107.5,86.6,109.1,86.6L109.1,86.6z"/>
<path id="Shape_33_" sketch:type="MSShapeGroup" class="st2" d="M111,89c1.5,0,2.8,0.4,4,1.1h0.1c4,0,7.3,3.2,7.5,7.1
	c0,0.1,0,0.3,0,0.4c0,1.1-0.2,2.1-0.7,3.1c0.8,1.2,1.3,2.6,1.3,4.2c0,0.1,0,0.3,0,0.4c-0.2,4-3.5,7.1-7.5,7.1c-0.4,0-0.8,0-1.2-0.1
	c-1.2,0.8-2.6,1.2-4.1,1.2c-1.5,0-2.8-0.4-4-1.1c-0.1,0-0.3,0-0.4,0c-4.2,0-7.5-3.4-7.5-7.5c0-1.1,0.2-2.1,0.7-3.1
	c-0.8-1.2-1.3-2.6-1.3-4.2c0-4.2,3.4-7.5,7.5-7.5c0.5,0,1,0,1.5,0.1C108,89.5,109.4,89,111,89L111,89z"/>
<path id="Shape_32_" sketch:type="MSShapeGroup" class="st5" d="M273.4,77.3c1.5,0,2.8,0.3,4,0.7h0.1c4.1,0,7.4,2,7.6,4.5
	c0,0.1,0,0.2,0,0.2c0,0.7-0.2,1.3-0.7,1.9c0.8,0.8,1.3,1.6,1.3,2.6c0,0.1,0,0.2,0,0.2c-0.2,2.5-3.5,4.5-7.6,4.5
	c-0.4,0-0.8,0-1.2-0.1c-1.2,0.5-2.6,0.8-4.1,0.8c-1.5,0-2.9-0.3-4-0.7c-0.1,0-0.3,0-0.4,0c-4.2,0-7.6-2.1-7.6-4.7
	c0-0.7,0.2-1.3,0.7-1.9c-0.8-0.7-1.3-1.6-1.3-2.6c0-2.6,3.4-4.7,7.6-4.7c0.5,0,1,0,1.5,0.1C270.4,77.6,271.9,77.3,273.4,77.3
	L273.4,77.3z"/>
<path id="Shape_30_" sketch:type="MSShapeGroup" class="st2" d="M275.4,78.8c1.5,0,2.8,0.3,4,0.7h0.1c4.1,0,7.4,2,7.6,4.5
	c0,0.1,0,0.2,0,0.2c0,0.7-0.2,1.3-0.7,1.9c0.8,0.8,1.3,1.6,1.3,2.6c0,0.1,0,0.2,0,0.2c-0.2,2.5-3.5,4.5-7.6,4.5
	c-0.4,0-0.8,0-1.2-0.1c-1.2,0.5-2.6,0.8-4.1,0.8c-1.5,0-2.9-0.3-4-0.7c-0.1,0-0.3,0-0.4,0c-4.2,0-7.6-2.1-7.6-4.7
	c0-0.7,0.2-1.3,0.7-1.9c-0.8-0.7-1.3-1.6-1.3-2.6c0-2.6,3.4-4.7,7.6-4.7c0.5,0,1,0,1.5,0.1C272.3,79.1,273.8,78.8,275.4,78.8
	L275.4,78.8z"/>
<path id="Shape_29_" sketch:type="MSShapeGroup" class="st5" d="M82.2,47.1c1.5,0,2.8,0.3,4,0.7h0.1c4.1,0,7.4,2,7.6,4.5
	c0,0.1,0,0.2,0,0.2c0,0.7-0.2,1.3-0.7,1.9c0.8,0.8,1.3,1.6,1.3,2.6c0,0.1,0,0.2,0,0.2c-0.2,2.5-3.5,4.5-7.6,4.5
	c-0.4,0-0.8,0-1.2-0.1c-1.2,0.5-2.6,0.8-4.1,0.8c-1.5,0-2.9-0.3-4-0.7c-0.1,0-0.3,0-0.4,0c-4.2,0-7.6-2.1-7.6-4.7
	c0-0.7,0.2-1.3,0.7-1.9c-0.8-0.7-1.3-1.6-1.3-2.6c0-2.6,3.4-4.7,7.6-4.7c0.5,0,1,0,1.5,0.1C79.1,47.4,80.6,47.1,82.2,47.1L82.2,47.1
	z"/>
<path id="Shape_27_" sketch:type="MSShapeGroup" class="st2" d="M84.1,48.6c1.5,0,2.8,0.3,4,0.7h0.1c4.1,0,7.4,2,7.6,4.5
	c0,0.1,0,0.2,0,0.2c0,0.7-0.2,1.3-0.7,1.9c0.8,0.8,1.3,1.6,1.3,2.6c0,0.1,0,0.2,0,0.2c-0.2,2.5-3.5,4.5-7.6,4.5
	c-0.4,0-0.8,0-1.2-0.1C86.4,63.8,85,64,83.5,64c-1.5,0-2.9-0.3-4-0.7c-0.1,0-0.3,0-0.4,0c-4.2,0-7.6-2.1-7.6-4.7
	c0-0.7,0.2-1.3,0.7-1.9c-0.8-0.7-1.3-1.6-1.3-2.6c0-2.6,3.4-4.7,7.6-4.7c0.5,0,1,0,1.5,0.1C81.1,48.9,82.5,48.6,84.1,48.6L84.1,48.6
	z"/>
<path id="Shape_26_" sketch:type="MSShapeGroup" class="st6" d="M207,63.7c2.3,0,4.4,0.4,6.1,1.1h0.2c6.3,0,11.4,3.1,11.7,6.9
	c0,0.1,0,0.3,0,0.4c0,1.1-0.4,2-1,3c1.2,1.2,2,2.5,2,4c0,0.1,0,0.3,0,0.4c-0.3,3.8-5.4,6.9-11.7,6.9c-0.6,0-1.2,0-1.8-0.1
	c-1.8,0.7-4,1.2-6.4,1.2c-2.3,0-4.4-0.4-6.2-1.1c-0.2,0-0.5,0-0.7,0c-6.5,0-11.7-3.3-11.7-7.3c0-1.1,0.4-2.1,1-3c-1.2-1.2-2-2.5-2-4
	c0-4,5.2-7.3,11.7-7.3c0.8,0,1.6,0,2.3,0.1C202.3,64.1,204.6,63.7,207,63.7L207,63.7z"/>
<path id="Shape_20_" sketch:type="MSShapeGroup" class="st2" d="M209.9,66c2.3,0,4.4,0.4,6.1,1.1h0.2c6.3,0,11.4,3.1,11.7,6.9
	c0,0.1,0,0.3,0,0.4c0,1.1-0.4,2-1,3c1.2,1.2,2,2.5,2,4c0,0.1,0,0.3,0,0.4c-0.3,3.8-5.4,6.9-11.7,6.9c-0.6,0-1.2,0-1.8-0.1
	c-1.8,0.7-4,1.2-6.4,1.2c-2.3,0-4.4-0.4-6.2-1.1c-0.2,0-0.5,0-0.7,0c-6.5,0-11.7-3.3-11.7-7.3c0-1.1,0.4-2.1,1-3c-1.2-1.2-2-2.5-2-4
	c0-4,5.2-7.3,11.7-7.3c0.8,0,1.6,0,2.3,0.1C205.3,66.4,207.5,66,209.9,66L209.9,66z"/>
</svg>
